<svg xmlns="http://www.w3.org/2000/svg" viewBox="0 0 90 90"><title>bluetooth</title><g id="bluetooth-flat"><circle id="label" cx="45" cy="45" r="45" fill="#3bafda"/><g id="shadow"><path d="M86.23,58.81l-.54-.54-.54-.54-.9-.9-.54-.54-.9-.9-.54-.54-.9-.9-.54-.54-.54-.54-.9-.9-.54-.54-.9-.9L77.44,50l-.9-.9L76,48.59l-.54-.54-.9-.9L74,46.62l-.9-.9-.54-.54-.9-.9-.54-.54-.54-.54-.9-.9-.54-.54-.9-.9-.54-.54-.9-.9-.54-.54-1.43-1.43-.54-.54-.9-.9-.54-.54-.9-.9-.54-.54L60,32.64l-.54-.54-.9-.9-.54-.54-.9-.9-.54-.54-.9-.9-.54-.54-.54-.54-.18-.18-.36-.36-.36-.36-.18-.18-.36-.36-.18-.18-.36-.36-.36-.36-.18-.18-.36-.36-.18-.18-.36-.36-.36-.36-.18-.18L50.37,23l-.18-.18-.36-.36-.18-.18-.36-.36-.36-.36-.18-.18L48.4,21l-.18-.18-.36-.36-.36-.36-.18-.18L47,19.55l-.18-.18L46.42,19l-.36-.36-.18-.18h0l-.18-.18A1,1,0,0,0,44,19V30.05a14.92,14.92,0,0,0-8.87,3.67l-.28-.28-.36-.36-.18-.18L34,32.55,33.42,32l-.36-.36-.18-.18h0l-.18-.18a1,1,0,0,0-1.41,1.41l.54.54.36.36.18.18.36.36.54.54.36.36.1.1a14.94,14.94,0,0,0,0,19.73l-2.43,2.43a1,1,0,0,0,0,1.41.94.94,0,0,0,.11.07,1,1,0,0,1,.25.29,1,1,0,0,0,.11.07,1,1,0,0,1,.25.29,1,1,0,0,0,.11.07,1,1,0,0,1,.25.29.94.94,0,0,0,.11.07,1,1,0,0,1,.25.29.94.94,0,0,0,.11.07,1,1,0,0,1,.25.29,1,1,0,0,0,.11.07,1,1,0,0,1,.25.29,1,1,0,0,0,.11.07,1,1,0,0,1,.25.29.94.94,0,0,0,.11.07,1,1,0,0,1,.25.29.94.94,0,0,0,.11.07,1,1,0,0,1,.25.29.33.33,0,0,1,.18.18.33.33,0,0,1,.18.18.33.33,0,0,1,.18.18.33.33,0,0,1,.18.18.33.33,0,0,1,.18.18.33.33,0,0,1,.18.18.33.33,0,0,1,.18.18.33.33,0,0,1,.18.18.33.33,0,0,1,.18.18.33.33,0,0,1,.18.18.33.33,0,0,1,.18.18.33.33,0,0,1,.18.18.33.33,0,0,1,.18.18.33.33,0,0,1,.18.18.33.33,0,0,1,.18.18.33.33,0,0,1,.18.18.33.33,0,0,1,.18.18.33.33,0,0,1,.18.18.33.33,0,0,1,.18.18.33.33,0,0,1,.18.18.33.33,0,0,1,.18.18.33.33,0,0,1,.18.18.33.33,0,0,1,.18.18.33.33,0,0,1,.18.18.33.33,0,0,1,.18.18.33.33,0,0,1,.18.18.33.33,0,0,1,.18.18.33.33,0,0,1,.18.18.33.33,0,0,1,.18.18.33.33,0,0,1,.18.18.33.33,0,0,1,.18.18.33.33,0,0,1,.18.18.33.33,0,0,1,.18.18.33.33,0,0,1,.18.18.33.33,0,0,1,.18.18.33.33,0,0,1,.18.18.33.33,0,0,1,.18.18.33.33,0,0,1,.18.18.33.33,0,0,1,.18.18.33.33,0,0,1,.18.18.33.33,0,0,1,.18.18.33.33,0,0,1,.18.18.33.33,0,0,1,.18.18.33.33,0,0,1,.18.18.33.33,0,0,1,.18.18.33.33,0,0,1,.18.18.33.33,0,0,1,.18.18.33.33,0,0,1,.18.18.33.33,0,0,1,.18.18.33.33,0,0,1,.18.18.33.33,0,0,1,.18.18.33.33,0,0,1,.18.18.33.33,0,0,1,.18.18.33.33,0,0,1,.18.18l.05,0a1,1,0,0,0,.11.12v0l.05,0a1,1,0,0,0,.11.12v0l.05,0a1,1,0,0,0,.11.12v0l.05,0a1,1,0,0,0,.11.12v0l.05,0a1,1,0,0,0,.11.12v0l.05,0a1,1,0,0,0,.11.12v0l.05,0a1,1,0,0,0,.11.12v0l.05,0a1,1,0,0,0,.11.12v0l.05,0a1,1,0,0,0,.11.12v0l.05,0a1,1,0,0,0,.11.12v0l.05,0a1,1,0,0,0,.11.12v0l.05,0a1,1,0,0,0,.11.12v0l.05,0a1,1,0,0,0,.11.12v0l.05,0a1,1,0,0,0,.11.12v0l.05,0a1,1,0,0,0,.11.12v0l.05,0a1,1,0,0,0,.11.12v0l.05,0a1,1,0,0,0,.11.12v0l.05,0a1,1,0,0,0,.11.12v0l.05,0a1,1,0,0,0,.11.12v0l.05,0a1,1,0,0,0,.11.12v0l.05,0a1,1,0,0,0,.11.12v0l.05,0a1,1,0,0,0,.11.12v0l.05,0a1,1,0,0,0,.11.12v0l.05,0a1,1,0,0,0,.11.12v0l.05,0a1,1,0,0,0,.11.12v0l.05,0a1,1,0,0,0,.11.12v0l.05,0a1,1,0,0,0,.11.12v0l.05,0a1,1,0,0,0,.11.12v0l.05,0a1,1,0,0,0,.11.12v0l.05,0a1,1,0,0,0,.11.12v0l.05,0a1,1,0,0,0,.11.12v0l.05,0a1,1,0,0,0,.11.12v0l.05,0a1,1,0,0,0,.11.12v0l.05,0a1,1,0,0,0,.11.12v0l.05,0a1,1,0,0,0,.11.12v0l.05,0a1,1,0,0,0,.11.12v0l.05,0a1,1,0,0,0,.11.12v0l.05,0a1,1,0,0,0,.11.12v0l.05,0a1,1,0,0,0,.11.12v0l.05,0a1,1,0,0,0,.11.12v0l.05,0a1,1,0,0,0,.11.12v0l.05,0a1,1,0,0,0,.11.12v0l.05,0a1,1,0,0,0,.11.12v0l.05,0a1,1,0,0,0,.11.12v0l.05,0a1,1,0,0,0,.11.12v0l.05,0a1,1,0,0,0,.11.12v0l.05,0a1,1,0,0,0,.11.12v0l.05,0a1,1,0,0,0,.11.12v0l.05,0a1,1,0,0,0,.11.12v0l.05,0a1,1,0,0,0,.11.12v0l.05,0a1,1,0,0,0,.11.12v0l.05,0a1,1,0,0,0,.11.12v0l.05,0a1,1,0,0,0,.11.12v0l.05,0a1,1,0,0,0,.11.12v0l.05,0a1,1,0,0,0,.11.12v0l.05,0a1,1,0,0,0,.11.12v0l.05,0a1,1,0,0,0,.11.12v0l.05,0a1,1,0,0,0,.11.12v0l.05,0a1,1,0,0,0,.11.12v0l.05,0a1,1,0,0,0,.11.12v0l.05,0a1,1,0,0,0,.11.12v0l.05,0a1,1,0,0,0,.11.12v0l.05,0a1,1,0,0,0,.11.12v0l.05,0a1,1,0,0,0,.11.12v0l.05,0a1,1,0,0,0,.11.12v0l.05,0a1,1,0,0,0,.11.12v0l.05,0a1,1,0,0,0,.11.12v0l.05,0a1,1,0,0,0,.11.12v0l.05,0a1,1,0,0,0,.11.12v0l.05,0a1,1,0,0,0,.11.12v0l.05,0a1,1,0,0,0,.11.12v0l.05,0a1,1,0,0,0,.11.12v0l.05,0a1,1,0,0,0,.11.12v0l.05,0a1,1,0,0,0,.11.12v0l.05,0a1,1,0,0,0,.11.12v0l.05,0a1,1,0,0,0,.11.12v0l.05,0a1,1,0,0,0,.11.12v0l.05,0a1,1,0,0,0,.11.12v0l.05,0a1,1,0,0,0,.11.12v0l.05,0a1,1,0,0,0,.11.12v0l.05,0a1,1,0,0,0,.11.12v0l.05,0a1,1,0,0,0,.11.12v0l.05,0a1,1,0,0,0,.11.12v0l.05,0a1,1,0,0,0,.11.12v0l.05,0a1,1,0,0,0,.11.12v0l.05,0a1,1,0,0,0,.11.12v0l.05,0a1,1,0,0,0,.11.12v0l.05,0a1,1,0,0,0,.11.12v0l0,0A45.11,45.11,0,0,0,87.43,60l-.3-.3Z" fill="#36a2c9"/></g><g id="bluetooth"><path d="M55.61,34.39A15,15,0,1,0,60,45,15,15,0,0,0,55.61,34.39Z" fill="#4dd0e1"/><path d="M45,72a1,1,0,0,1-.38-.08A1,1,0,0,1,44,71V47.41L32.71,58.71a1,1,0,1,1-1.41-1.41L43.59,45,31.29,32.71a1,1,0,0,1,1.41-1.41L44,42.59V19a1,1,0,0,1,1.71-.71l13,13a1,1,0,0,1,0,1.41L46.41,45,58.71,57.29a1,1,0,0,1,0,1.41l-13,13A1,1,0,0,1,45,72Zm1-24.59V68.59L56.59,58,46,47.41Zm0-26V42.59L56.59,32,46,21.41Z" fill="#fff"/></g></g></svg>