<svg xmlns="http://www.w3.org/2000/svg" viewBox="0 0 90 90"><title>message-phone</title><g id="message-phone-flat"><g id="message-phone"><circle id="label" cx="45" cy="45" r="45" fill="#3bafda"/><g id="shadow"><path d="M89.38,52.21H89.2V52H89v-.18h-.18v-.18h-.18V51.5h-.18v-.18h-.18v-.18h-.18V51h-.18v-.18h-.18V50.6h-.18v-.18h-.18v-.18h-.18v-.18h-.18v-.18h-.18V49.7h-.18v-.18h-.18v-.18h-.18v-.18h-.18V49H86v-.18H85.8v-.18h-.18v-.18h-.18v-.18h-.18v-.18h-.18v-.18H84.9v-.18h-.18v-.18h-.18v-.18h-.18v-.18h-.18V47H84v-.18h-.18v-.18h-.18v-.18h-.18V46.3h-.18v-.18h-.18v-.18h-.18v-.18h-.18v-.18h-.18V45.4h-.18v-.18h-.18V45H82v-.18h-.18v-.18h-.18V44.5h-.18v-.18h-.18v-.18h-.18V44H81v-.18h-.18v-.18H80.6v-.18h-.18v-.18h-.18v-.18h-.18v-.18h-.18v-.18H79.7v-.18h-.18v-.18h-.18v-.18h-.18V42H79v-.18H78.8v-.18h-.18v-.18h-.18v-.18h-.18V41.1h-.18v-.18h-.18v-.18h-.18v-.18h-.18v-.18h-.18V40.2h-.18V40H77v-.18h-.18v-.18h-.18v-.18h-.18v-.18h-.18v-.18h-.18v-.18h-.18v-.18h-.18v-.18h-.18v-.18H75.4v-.18h-.18v-.18H75v-.18h-.18v-.18h-.18v-.18H74.5v-.18h-.18v-.18h-.18V37H74V36.8h-.18v-.18h-.18v-.18h-.18v-.18h-.18v-.18h-.18V35.9h-.18v-.18h-.18v-.18h-.18v-.18h-.18v-.18h-.18V35H72v-.18h-.18v-.18h-.18v-.18h-.18v-.18h-.18v-.18H71.1v-.18h-.18v-.18h-.18v-.18h-.18v-.18h-.18v-.18H70.2V33H70v-.18h-.18v-.18h-.18v-.18h-.18v-.18H69.3v-.18h-.18V32h-.18v-.18h-.18V31.6h-.18v-.18H67l-.14-.13-.18-.18-.18-.18-.18-.18-.18-.18-.18-.18-.18-.18L65.57,30l-.18-.18-.18-.18L65,29.49l-.18-.18-.18-.18L64.49,29l-.18-.18-.18-.18L64,28.41l-.18-.18-.18-.18-.18-.18-.18-.18-.18-.18-.18-.18-.18-.18L62.52,27l-.18-.18-.18-.18L62,26.44l-.18-.18-.18-.18-.18-.18-.18-.18-.18-.18-.18-.18-.18-.18L60.55,25l-.18-.18-.18-.18L60,24.47l-.18-.18-.18-.18-.18-.18-.18-.18-.18-.18-.18-.18-.18-.18L58.58,23l-.18-.18-.18-.18L58,22.5l-.18-.18-.18-.18A3.53,3.53,0,0,0,55.09,21H35a3.55,3.55,0,0,0-3.55,3.55v40.9A3.53,3.53,0,0,0,32.55,68l.18.18.18.18.18.18.18.18.18.18.18.18.18.18.18.18.18.18.18.18.18.18.18.18.18.18.18.18.18.18.18.18.18.18.18.18.18.18.18.18.18.18.18.18.18.18.18.18.18.18.18.18.18.18.18.18.18.18.18.18.18.18.18.18.18.18.18.18.18.18.18.18.18.18.18.18.18.18.18.18.18.18.18.18.18.18.18.18.18.18.18.18.18.18.18.18.18.18.18.18.18.18.18.18.18.18.18.18.18.18.18.18.18.18.18.18.18.18.18.18.18.18.18.18.18.18.18.18.18.18.18.18.18.18.18.18.18.18.18.18.18.18.18.18.18.18.18.18.18.18.18.18.18.18.18.18.18.18.18.18.18.18.18.18.18.18.18.18.18.18.18.18.18.18.18.18.18.18.18.18.18.18.18.18.18.18.18.18.18.18.18.18.18.18.18.18.18.18.18.18.18.18.18.18.18.18.18.18.18.18.18.18.18.18.18.18.18.18.18.18.18.18.18.18.18.18.18.18.18.18.18.18.18.18.14.14A45,45,0,0,0,89.39,52.39h0Z" fill="#36a2c9"/></g><g id="message-phone-2" data-name="message-phone"><path d="M32.24,26.62V24.55A2.72,2.72,0,0,1,35,21.83H55.09a2.72,2.72,0,0,1,2.72,2.72v2.07Z" fill="#fff"/><path d="M35,68.17a2.72,2.72,0,0,1-2.72-2.72V58.58H57.81v6.87a2.72,2.72,0,0,1-2.72,2.72Z" fill="#fff"/><polygon points="32.24 58.58 32.24 26.62 57.81 26.62 57.81 31.42 57.81 46.6 57.81 58.58 32.24 58.58" fill="#434a54"/><path d="M55.09,69H35a3.55,3.55,0,0,1-3.55-3.55V24.55A3.55,3.55,0,0,1,35,21H55.09a3.55,3.55,0,0,1,3.55,3.55v6.87a.83.83,0,0,1-1.66,0V24.55a1.9,1.9,0,0,0-1.89-1.89H35a1.9,1.9,0,0,0-1.89,1.89v40.9A1.89,1.89,0,0,0,35,67.34H55.09A1.89,1.89,0,0,0,57,65.45V46.6a.83.83,0,0,1,1.66,0V65.45A3.55,3.55,0,0,1,55.09,69Z" fill="#fff"/><polygon points="46.63 24.97 43.43 24.97 43.43 23.48 46.63 23.48 46.63 24.97 46.63 24.97" fill="#e0e0e0"/><circle cx="45.03" cy="63.38" r="1.66" fill="#e0e0e0"/><polygon points="68.58 46.6 52.7 46.6 46.81 50.89 46.81 46.6 43.41 46.6 43.41 31.42 68.58 31.42 68.58 46.6" fill="#fc6e51"/><polygon points="64.48 37.84 47.92 37.84 47.92 36.18 64.48 36.18 64.48 37.84 64.48 37.84" fill="#434a54"/><polygon points="58.68 41.83 47.92 41.83 47.92 40.18 58.68 40.18 58.68 41.83 58.68 41.83" fill="#434a54"/></g></g></g></svg>